<svg xmlns="http://www.w3.org/2000/svg" width="613" height="1330" viewBox="0 0 613 1330">
  <g id="Path_1" data-name="Path 1" transform="matrix(0.998, -0.07, 0.07, 0.998, 361.304, 355.042)" fill="#ff0101">
    <path d="M 90.72886657714844 298.6261901855469 C 84.61646270751953 298.6261901855469 78.50782012939453 297.8243103027344 72.57254791259766 296.242919921875 C 66.78641510009766 294.701171875 61.09427642822266 292.4004211425781 55.65432357788086 289.4044189453125 C 50.31005096435547 286.4610900878906 45.15482330322266 282.8175048828125 40.33173370361328 278.5747680664062 C 35.55177688598633 274.3699645996094 31.05636787414551 269.5403137207031 26.97041320800781 264.2200012207031 C 22.88259506225586 258.8973083496094 19.17104911804199 253.0398101806641 15.93886852264404 246.8102722167969 C 12.67464065551758 240.5189971923828 9.870913505554199 233.7928619384766 7.605459213256836 226.8187713623047 C 5.297686576843262 219.7142181396484 3.525186538696289 212.2791290283203 2.337231874465942 204.7200469970703 C 1.118140935897827 196.9627685546875 0.5000045895576477 188.9784545898438 0.5000045895576477 180.9889068603516 C 0.5000045895576477 172.9993591308594 1.118140935897827 165.0150451660156 2.337231874465942 157.2577209472656 C 3.525186538696289 149.6986389160156 5.297686576843262 142.2635498046875 7.605459213256836 135.1589965820312 C 9.870913505554199 128.1849060058594 12.67464065551758 121.4587707519531 15.93886852264404 115.1674957275391 C 19.17104911804199 108.9379043579102 22.88259506225586 103.080451965332 26.97041320800781 97.75776672363281 C 31.05636787414551 92.43745422363281 35.55177688598633 87.60781860351562 40.33173370361328 83.40299987792969 C 45.15482330322266 79.16027069091797 50.31005096435547 75.51663208007812 55.65432357788086 72.5733642578125 C 61.09427642822266 69.57736206054688 66.78641510009766 67.27658843994141 72.57254791259766 65.73486328125 C 78.50782012939453 64.15345001220703 84.61646270751953 63.35158920288086 90.72886657714844 63.35158920288086 C 100.1508712768555 63.35158920288086 111.8174133300781 59.59499740600586 126.3952331542969 51.86717987060547 C 139.1950073242188 45.08190536499023 152.4641876220703 36.24040603637695 165.2965087890625 27.68999671936035 C 176.0351867675781 20.53463363647461 186.1783294677734 13.77608871459961 195.2625427246094 8.744224548339844 C 200.1167297363281 6.0554518699646 204.2544097900391 4.088679313659668 207.9120483398438 2.731543064117432 C 211.9588623046875 1.229952096939087 215.3358612060547 0.4999975264072418 218.2359161376953 0.4999975264072418 C 222.3739166259766 0.4999975264072418 225.3979187011719 2.006133794784546 227.4807281494141 5.104452133178711 C 228.5903625488281 6.755134105682373 229.4395446777344 8.895452499389648 230.0046844482422 11.46595191955566 C 230.5944976806641 14.14867973327637 230.8935546875 17.38472557067871 230.8935546875 21.0840892791748 C 230.8935546875 29.00231552124023 229.5551910400391 39.28936004638672 226.9155883789062 51.65945053100586 C 224.37841796875 63.54954147338867 220.7007751464844 77.08904266357422 215.9847259521484 91.90190887451172 C 206.6149139404297 121.3320465087891 193.6220092773438 154.1673126220703 179.3994598388672 184.3590850830078 C 164.0187377929688 217.0093994140625 148.1280975341797 244.7423095703125 133.4453735351562 264.5596008300781 C 125.4297332763672 275.3782653808594 117.8252334594727 283.7587280273438 110.8430938720703 289.4680786132812 C 103.4114608764648 295.5449523925781 96.64409637451172 298.6261901855469 90.72886657714844 298.6261901855469 Z" stroke="none"/>
    <path d="M 218.2359161376953 1 C 215.3962707519531 1 212.0761871337891 1.7197265625 208.0859527587891 3.2003173828125 C 204.4521484375 4.548629760742188 200.3368225097656 6.505126953125 195.5048217773438 9.181640625 C 186.4385070800781 14.20353698730469 176.3036499023438 20.95658874511719 165.57373046875 28.10609436035156 C 152.7311859130859 36.66336059570312 139.4513702392578 45.51190185546875 126.6294174194336 52.30894470214844 C 111.9776840209961 60.07595825195312 100.2345428466797 63.85159301757812 90.72886657714844 63.85159301757812 C 84.659912109375 63.85159301757812 78.59454345703125 64.64776611328125 72.70127868652344 66.21800231933594 C 66.95428466796875 67.749267578125 61.30000305175781 70.034912109375 55.8955078125 73.01136779785156 C 50.58309936523438 75.93708801269531 45.45777893066406 79.55967712402344 40.66200256347656 83.77841186523438 C 35.90632629394531 87.96186828613281 31.4332275390625 92.76768493652344 27.36695861816406 98.06231689453125 C 23.2969970703125 103.3617248535156 19.60136413574219 109.1942291259766 16.3826904296875 115.3977661132812 C 13.13108825683594 121.6647644042969 10.33799743652344 128.3653564453125 8.081008911132812 135.3134460449219 C 5.781326293945312 142.3930053710938 4.015045166015625 149.8022155761719 2.831192016601562 157.3353576660156 C 1.6160888671875 165.0670471191406 1 173.0252685546875 1 180.9889068603516 C 1 188.9525451660156 1.6160888671875 196.9107208251953 2.831192016601562 204.6424102783203 C 4.015045166015625 212.175537109375 5.781326293945312 219.5847778320312 8.081008911132812 226.6642761230469 C 10.33799743652344 233.6123657226562 13.13108825683594 240.3130035400391 16.3826904296875 246.5800018310547 C 19.60136413574219 252.7834930419922 23.2969970703125 258.6159973144531 27.36695861816406 263.9154663085938 C 31.4332275390625 269.2100830078125 35.90632629394531 274.015869140625 40.66200256347656 278.1993103027344 C 45.45777893066406 282.4180297851562 50.58309936523438 286.0406494140625 55.8955078125 288.9663696289062 C 61.30000305175781 291.9428100585938 66.95428466796875 294.2284545898438 72.70127868652344 295.7597351074219 C 78.59454345703125 297.3299560546875 84.659912109375 298.1261291503906 90.72886657714844 298.1261291503906 C 96.52568054199219 298.1261291503906 103.1865997314453 295.0829162597656 110.5265502929688 289.0809631347656 C 117.4767303466797 283.3977355957031 125.0525970458984 275.0473937988281 133.0436401367188 264.2619018554688 C 147.7070465087891 244.4706268310547 163.5802307128906 216.7669982910156 178.9471435546875 184.14599609375 C 193.1605987548828 153.9734954833984 206.1449127197266 121.1600494384766 215.5082702636719 91.75018310546875 C 220.2193603515625 76.95281982421875 223.892822265625 63.42922973632812 226.4265899658203 51.55503845214844 C 229.0588684082031 39.21922302246094 230.3935546875 28.96726989746094 230.3935546875 21.08404541015625 C 230.3935546875 17.42073059082031 230.0984191894531 14.22080993652344 229.5163726806641 11.57327270507812 C 228.9647369384766 9.064315795898438 228.1402740478516 6.981765747070312 227.0657806396484 5.383407592773438 C 225.0829620361328 2.433822631835938 222.1946868896484 1 218.2359161376953 1 M 218.2359008789062 -1.52587890625e-05 C 226.4517822265625 -1.52587890625e-05 231.3935546875 5.839935302734375 231.3935546875 21.08404541015625 C 231.3935546875 86.32949829101562 140.8370513916016 299.1261291503906 90.72886657714844 299.1261291503906 C 40.62068176269531 299.1261291503906 0 246.2342681884766 0 180.9889068603516 C 0 115.7434539794922 40.62068176269531 62.85159301757812 90.72886657714844 62.85159301757812 C 129.129638671875 62.85159301757812 191.2874755859375 -1.52587890625e-05 218.2359008789062 -1.52587890625e-05 Z" stroke="none" fill="#707070"/>
  </g>
  <text id="a" transform="translate(0 1079)" fill="#707070" font-size="1000" font-family="SegoeUI, Segoe UI"><tspan x="0" y="0">a</tspan></text>
  <text id="s" transform="translate(405 903)" fill="#707070" font-size="490" font-family="SegoeUI, Segoe UI"><tspan x="0" y="0">s</tspan></text>
</svg>
