<svg xmlns="http://www.w3.org/2000/svg" width="941.668" height="1330" viewBox="0 0 941.668 1330">
  <g id="Path_1" data-name="Path 1" transform="matrix(0.998, -0.07, 0.07, 0.998, 414.135, 334.313)" fill="red">
    <path d="M 186.4615020751953 761.331787109375 C 173.8637084960938 761.331787109375 161.2732086181641 759.2835693359375 149.0398101806641 755.2442016601562 C 137.1123046875 751.3057861328125 125.3784027099609 745.4281005859375 114.1641006469727 737.7742919921875 C 103.147102355957 730.2550659179688 92.51990509033203 720.9469604492188 82.57760620117188 710.1083984375 C 72.72520446777344 699.3678588867188 63.4597053527832 687.0318603515625 55.03830337524414 673.443115234375 C 46.61440277099609 659.8499755859375 38.96610260009766 644.8919067382812 32.30590438842773 628.9840698242188 C 25.58050346374512 612.9207153320312 19.80400276184082 595.74755859375 15.13670349121094 577.9417724609375 C 10.38260364532471 559.8048095703125 6.731303691864014 540.8244018554688 4.284303665161133 521.5277099609375 C 1.773203611373901 501.7265930175781 0.5000036358833313 481.3462829589844 0.5000036358833313 460.9530029296875 C 0.5000036358833313 447.0780029296875 0.4290036559104919 433.2781982421875 0.3604036569595337 419.9328002929688 C 0.2165036648511887 391.9564819335938 0.08060365915298462 365.5316772460938 0.5768036842346191 340.4863891601562 C 1.134803652763367 312.3179931640625 2.410403728485107 290.1914978027344 4.591203689575195 270.8530883789062 C 7.137803554534912 248.27099609375 10.92020320892334 229.8613891601562 16.15470314025879 214.5724945068359 C 18.96220397949219 206.3723907470703 22.24950408935547 198.9625854492188 25.92550277709961 192.5488891601562 C 29.74900436401367 185.877685546875 34.13510513305664 180.0350952148438 38.96200180053711 175.1833953857422 C 42.25290298461914 171.87548828125 45.83920288085938 168.935791015625 49.6212043762207 166.4459838867188 C 53.48160552978516 163.9045867919922 57.66660308837891 161.7523956298828 62.06010437011719 160.0490875244141 C 66.53920745849609 158.3125915527344 71.37360382080078 156.9887847900391 76.42890167236328 156.1146850585938 C 81.57610321044922 155.2245941162109 87.10980224609375 154.7732849121094 92.87620544433594 154.7732849121094 C 100.7671051025391 154.7732849121094 113.6996002197266 160.356689453125 131.3146057128906 171.3684844970703 C 145.4561004638672 180.2088928222656 162.60400390625 192.5384826660156 182.2821960449219 208.0147857666016 C 215.7994079589844 234.3751831054688 245.4240112304688 261.0809020996094 245.7192993164062 261.3475952148438 L 246.1327056884766 261.7208862304688 L 246.4593963623047 261.2696838378906 C 246.5635986328125 261.1257934570312 257.0694885253906 246.6279907226562 273.2842102050781 225.2827911376953 C 288.2488098144531 205.58349609375 311.2741088867188 175.8581848144531 335.9841003417969 146.1176910400391 C 363.7514953613281 112.6974868774414 387.9420166015625 86.0712890625 407.8836059570312 66.97888946533203 C 432.7312927246094 43.18928909301758 450.9533996582031 31.12698936462402 462.0439147949219 31.12698936462402 C 464.1094970703125 31.12698936462402 465.9482116699219 31.5540885925293 467.5089111328125 32.39658737182617 C 469.1111145019531 33.26148986816406 470.4754028320312 34.59428787231445 471.5639953613281 36.35799026489258 C 473.8763122558594 40.10408782958984 475.0487060546875 45.93819046020508 475.0487060546875 53.69808959960938 C 475.0487060546875 73.92549133300781 472.2929992675781 100.1859893798828 466.8580017089844 131.7500915527344 C 461.6390991210938 162.0597839355469 454.0751037597656 196.5702819824219 444.3760986328125 234.3228912353516 C 434.8316955566406 271.473876953125 423.5204162597656 310.6046752929688 410.7561950683594 350.6283874511719 C 397.834716796875 391.1458740234375 383.8380126953125 431.2750854492188 369.1552124023438 469.9013977050781 C 353.905517578125 510.0188903808594 338.2861022949219 547.5255737304688 322.7310180664062 581.3796997070312 C 306.2787170410156 617.1864624023438 290.1007995605469 648.4483642578125 274.6469116210938 674.297119140625 C 258.1434936523438 701.9010009765625 242.4808044433594 723.2894897460938 228.0938110351562 737.8685913085938 C 220.5485992431641 745.5144653320312 213.2601013183594 751.369384765625 206.4306030273438 755.2705688476562 C 202.9374084472656 757.2659912109375 199.4970092773438 758.7879028320312 196.2051086425781 759.7938842773438 C 192.8655090332031 760.8143920898438 189.5873107910156 761.331787109375 186.4615020751953 761.331787109375 Z" stroke="none"/>
    <path d="M 462.0488891601562 30.62701416015625 L 462.044189453125 31.62701416015625 C 456.3814086914062 31.628662109375 448.6950988769531 34.90191650390625 439.1986083984375 41.35546875 C 430.4579162597656 47.29547119140625 420.038818359375 56.0396728515625 408.2308044433594 67.34521484375 C 388.3033142089844 86.424560546875 364.1264038085938 113.0357055664062 336.37158203125 146.4393920898438 C 311.6675109863281 176.1716918945312 288.6470031738281 205.8891906738281 273.6854248046875 225.58349609375 C 257.4730224609375 246.9241943359375 246.9685974121094 261.4190979003906 246.8644104003906 261.56298828125 L 246.2109985351562 262.4653015136719 L 245.3842010498047 261.7186889648438 C 245.0890045166016 261.4520874023438 215.4734039306641 234.7546997070312 181.9692077636719 208.40478515625 C 162.305908203125 192.940185546875 145.1734008789062 180.6217041015625 131.0476989746094 171.791259765625 C 113.514404296875 160.830810546875 100.6716003417969 155.2733154296875 92.87619018554688 155.2733154296875 C 87.13821411132812 155.2733154296875 81.63320922851562 155.7221069335938 76.51409912109375 156.6073608398438 C 71.49139404296875 157.4758911132812 66.68911743164062 158.7907104492188 62.24090576171875 160.5152587890625 C 57.88031005859375 162.205810546875 53.72698974609375 164.3416748046875 49.89620971679688 166.8635864257812 C 46.1427001953125 169.3345947265625 42.58319091796875 172.2523803710938 39.31640625 175.5360107421875 C 34.5205078125 180.356689453125 30.16110229492188 186.164306640625 26.35931396484375 192.7974853515625 C 22.6990966796875 199.1836853027344 19.42489624023438 206.5643005371094 16.62771606445312 214.7344970703125 C 11.40521240234375 229.9885864257812 7.6304931640625 248.3634948730469 5.088104248046875 270.9090881347656 C 2.90899658203125 290.2317810058594 1.6343994140625 312.3436889648438 1.076690673828125 340.4962768554688 C 0.580596923828125 365.535400390625 0.71649169921875 391.9570922851562 0.86041259765625 419.93017578125 C 0.92901611328125 433.2762756347656 1 447.0766906738281 1 460.9530029296875 C 1 481.3252868652344 2.27191162109375 501.6843872070312 4.780303955078125 521.4647827148438 C 7.224700927734375 540.739990234375 10.87179565429688 559.698974609375 15.62039184570312 577.8150634765625 C 20.28179931640625 595.5982666015625 26.05068969726562 612.7490844726562 32.76708984375 628.791015625 C 39.41720581054688 644.6744995117188 47.05331420898438 659.6090087890625 55.46331787109375 673.1796875 C 63.86819458007812 686.7420043945312 73.11480712890625 699.0529174804688 82.94601440429688 709.7705078125 C 92.86251831054688 720.580810546875 103.4606018066406 729.8637084960938 114.4460144042969 737.3612670898438 C 125.6217041015625 744.9887084960938 137.3134155273438 750.845703125 149.1965942382812 754.7694091796875 C 161.3793029785156 758.7921142578125 173.9169921875 760.831787109375 186.4615173339844 760.831787109375 C 189.5378112792969 760.831787109375 192.7668151855469 760.3217163085938 196.0588989257812 759.315673828125 C 199.3154907226562 758.3204956054688 202.7216186523438 756.8134765625 206.1826171875 754.8363647460938 C 212.9725036621094 750.957763671875 220.2247009277344 745.130859375 227.7378997802734 737.5173950195312 C 242.0969085693359 722.966796875 257.7349243164062 701.610107421875 274.2177124023438 674.0404663085938 C 289.6625061035156 648.207275390625 305.831787109375 616.9613647460938 322.2767028808594 581.1710205078125 C 337.8270874023438 547.3270263671875 353.4421081542969 509.8306884765625 368.6878051757812 469.7236938476562 C 383.3674926757812 431.1058959960938 397.3611145019531 390.9853820800781 410.2799072265625 350.4765014648438 C 423.0411071777344 310.4617919921875 434.3497924804688 271.3403015136719 443.8918151855469 234.198486328125 C 453.58740234375 196.4588928222656 461.1485900878906 161.961669921875 466.3652954101562 131.665283203125 C 471.79541015625 100.1290893554688 474.5487060546875 73.897216796875 474.5487060546875 53.69805908203125 C 474.5487060546875 46.03326416015625 473.4017944335938 40.28790283203125 471.139892578125 36.62158203125 C 469.0664978027344 33.26068115234375 466.0928039550781 31.62701416015625 462.0488891601562 31.62701416015625 L 462.0488891601562 30.62701416015625 M 462.0438842773438 30.626953125 C 470.5591430664062 30.62432861328125 475.5487060546875 37.51898193359375 475.5487060546875 53.69805908203125 C 475.5487060546875 219.8689880371094 289.44140625 761.831787109375 186.4615173339844 761.831787109375 C 83.481689453125 761.831787109375 0 627.123779296875 0 460.9530029296875 C 0 294.7820739746094 -10.10369873046875 154.2733154296875 92.87619018554688 154.2733154296875 C 127.8893127441406 154.2733154296875 246.0543975830078 260.9765014648438 246.0543975830078 260.9765014648438 C 246.0543975830078 260.9765014648438 412.8370971679688 30.64215087890625 462.0438842773438 30.626953125 Z" stroke="none" fill="#707070"/>
  </g>
  <text id="s" transform="translate(541 895)" fill="#fff" font-size="490" font-family="SegoeUI, Segoe UI"><tspan x="0" y="0">s</tspan></text>
  <text id="A" transform="translate(0 1079)" fill="#707070" font-size="1000" font-family="SegoeUI, Segoe UI"><tspan x="0" y="0">A</tspan></text>
</svg>
